<svg version="1.1" viewBox="0.0 0.0 204.82939632545933 100.0" fill="none" stroke="none" stroke-linecap="square" stroke-miterlimit="10" xmlns:xlink="http://www.w3.org/1999/xlink" xmlns="http://www.w3.org/2000/svg"><clipPath id="p.0"><path d="m0 0l204.82939 0l0 100.0l-204.82939 0l0 -100.0z" clip-rule="nonzero"/></clipPath><g clip-path="url(#p.0)"><path fill="#000000" fill-opacity="0.0" d="m0 0l204.82939 0l0 100.0l-204.82939 0z" fill-rule="evenodd"/><path fill="#d6b829" d="m37.92651 9.748032l11.559055 0l0 20.125984l-11.559055 0z" fill-rule="evenodd"/><path stroke="#000000" stroke-width="1.0" stroke-linejoin="round" stroke-linecap="butt" d="m37.92651 9.748032l11.559055 0l0 20.125984l-11.559055 0z" fill-rule="evenodd"/><path fill="#000000" fill-opacity="0.0" d="m49.485565 9.748032l130.11023 0l0 20.125984l-130.11023 0z" fill-rule="evenodd"/><path fill="#000000" d="m61.798065 25.986023l0 -1.171875q-0.875 -0.109375 -1.421875 -0.390625q-0.546875 -0.28125 -0.953125 -0.90625q-0.390625 -0.640625 -0.46875 -1.5625l1.1875 -0.21875q0.140625 0.953125 0.484375 1.390625q0.484375 0.625 1.171875 0.703125l0 -3.734375q-0.71875 -0.140625 -1.46875 -0.5625q-0.5625 -0.3125 -0.875 -0.859375q-0.296875 -0.5625 -0.296875 -1.265625q0 -1.25 0.890625 -2.015625q0.59375 -0.53125 1.75 -0.640625l0 -0.5625l0.703125 0l0 0.5625q1.015625 0.09375 1.609375 0.59375q0.765625 0.640625 0.921875 1.75l-1.203125 0.1875q-0.109375 -0.6875 -0.4375 -1.046875q-0.328125 -0.375 -0.890625 -0.5l0 3.375q0.875 0.234375 1.171875 0.359375q0.546875 0.234375 0.890625 0.578125q0.34375 0.34375 0.515625 0.828125q0.1875 0.46875 0.1875 1.015625q0 1.21875 -0.78125 2.03125q-0.765625 0.8125 -1.984375 0.875l0 1.1875l-0.703125 0zm0 -10.265625q-0.671875 0.109375 -1.078125 0.5625q-0.390625 0.4375 -0.390625 1.046875q0 0.59375 0.328125 1.0q0.34375 0.390625 1.140625 0.640625l0 -3.25zm0.703125 8.109375q0.671875 -0.09375 1.109375 -0.59375q0.453125 -0.515625 0.453125 -1.265625q0 -0.640625 -0.3125 -1.015625q-0.3125 -0.390625 -1.25 -0.703125l0 3.578125zm8.365601 0.78125l-1.171875 0l0 -7.46875q-0.421875 0.40625 -1.109375 0.8125q-0.6875 0.40625 -1.234375 0.609375l0 -1.140625q0.984375 -0.453125 1.71875 -1.109375q0.734375 -0.671875 1.03125 -1.28125l0.765625 0l0 9.578125zm7.4124756 0l-1.171875 0l0 -7.46875q-0.421875 0.40625 -1.109375 0.8125q-0.6875 0.40625 -1.234375 0.609375l0 -1.140625q0.984375 -0.453125 1.71875 -1.109375q0.734375 -0.671875 1.03125 -1.28125l0.765625 0l0 9.578125zm2.9906006 -4.703125q0 -1.6875 0.34375 -2.71875q0.359375 -1.03125 1.046875 -1.59375q0.6875 -0.5625 1.71875 -0.5625q0.78125 0 1.359375 0.3125q0.578125 0.296875 0.953125 0.890625q0.375 0.578125 0.59375 1.421875q0.21875 0.828125 0.21875 2.25q0 1.671875 -0.359375 2.703125q-0.34375 1.03125 -1.03125 1.59375q-0.671875 0.5625 -1.734375 0.5625q-1.375 0 -2.15625 -0.984375q-0.953125 -1.1875 -0.953125 -3.875zm1.203125 0q0 2.34375 0.546875 3.125q0.5625 0.78125 1.359375 0.78125q0.8125 0 1.359375 -0.78125q0.5625 -0.78125 0.5625 -3.125q0 -2.359375 -0.5625 -3.125q-0.546875 -0.78125 -1.359375 -0.78125q-0.8125 0 -1.296875 0.6875q-0.609375 0.875 -0.609375 3.21875zm6.8499756 4.703125l0 -1.328125l1.328125 0l0 1.328125q0 0.734375 -0.265625 1.1875q-0.25 0.453125 -0.8125 0.703125l-0.328125 -0.5q0.375 -0.171875 0.546875 -0.484375q0.171875 -0.3125 0.1875 -0.90625l-0.65625 0zm3.0623627 -4.703125q0 -1.6875 0.34375 -2.71875q0.359375 -1.03125 1.046875 -1.59375q0.6875 -0.5625 1.71875 -0.5625q0.78125 0 1.359375 0.3125q0.578125 0.296875 0.953125 0.890625q0.375 0.578125 0.59375 1.421875q0.21875 0.828125 0.21875 2.25q0 1.671875 -0.359375 2.703125q-0.34375 1.03125 -1.03125 1.59375q-0.671875 0.5625 -1.734375 0.5625q-1.375 0 -2.15625 -0.984375q-0.953125 -1.1875 -0.953125 -3.875zm1.203125 0q0 2.34375 0.546875 3.125q0.5625 0.78125 1.359375 0.78125q0.8125 0 1.359375 -0.78125q0.5625 -0.78125 0.5625 -3.125q0 -2.359375 -0.5625 -3.125q-0.546875 -0.78125 -1.359375 -0.78125q-0.8125 0 -1.296875 0.6875q-0.609375 0.875 -0.609375 3.21875zm6.2093506 0q0 -1.6875 0.34375 -2.71875q0.359375 -1.03125 1.046875 -1.59375q0.6875 -0.5625 1.71875 -0.5625q0.78125 0 1.359375 0.3125q0.578125 0.296875 0.953125 0.890625q0.375 0.578125 0.59375 1.421875q0.21875 0.828125 0.21875 2.25q0 1.671875 -0.359375 2.703125q-0.34375 1.03125 -1.03125 1.59375q-0.671875 0.5625 -1.734375 0.5625q-1.375 0 -2.15625 -0.984375q-0.953125 -1.1875 -0.953125 -3.875zm1.203125 0q0 2.34375 0.546875 3.125q0.5625 0.78125 1.359375 0.78125q0.8125 0 1.359375 -0.78125q0.5625 -0.78125 0.5625 -3.125q0 -2.359375 -0.5625 -3.125q-0.546875 -0.78125 -1.359375 -0.78125q-0.8125 0 -1.296875 0.6875q-0.609375 0.875 -0.609375 3.21875zm6.2093506 0q0 -1.6875 0.34375 -2.71875q0.359375 -1.03125 1.046875 -1.59375q0.6875 -0.5625 1.71875 -0.5625q0.78125 0 1.359375 0.3125q0.578125 0.296875 0.953125 0.890625q0.375 0.578125 0.59375 1.421875q0.21875 0.828125 0.21875 2.25q0 1.671875 -0.359375 2.703125q-0.34375 1.03125 -1.03125 1.59375q-0.671875 0.5625 -1.734375 0.5625q-1.375 0 -2.15625 -0.984375q-0.953125 -1.1875 -0.953125 -3.875zm1.203125 0q0 2.34375 0.546875 3.125q0.5625 0.78125 1.359375 0.78125q0.8125 0 1.359375 -0.78125q0.5625 -0.78125 0.5625 -3.125q0 -2.359375 -0.5625 -3.125q-0.546875 -0.78125 -1.359375 -0.78125q-0.8125 0 -1.296875 0.6875q-0.609375 0.875 -0.609375 3.21875zm9.006226 3.15625l0 -2.609375l-2.609375 0l0 -1.09375l2.609375 0l0 -2.59375l1.09375 0l0 2.59375l2.609375 0l0 1.09375l-2.609375 0l0 2.609375l-1.09375 0z" fill-rule="nonzero"/><path fill="#e4d58f" d="m37.92651 29.874016l11.559055 0l0 20.125984l-11.559055 0z" fill-rule="evenodd"/><path stroke="#000000" stroke-width="1.0" stroke-linejoin="round" stroke-linecap="butt" d="m37.92651 29.874016l11.559055 0l0 20.125984l-11.559055 0z" fill-rule="evenodd"/><path fill="#000000" fill-opacity="0.0" d="m49.485565 29.874016l150.67717 0l0 20.125984l-150.67717 0z" fill-rule="evenodd"/><path fill="#000000" d="m61.798065 46.112007l0 -1.171875q-0.875 -0.109375 -1.421875 -0.390625q-0.546875 -0.28125 -0.953125 -0.90625q-0.390625 -0.640625 -0.46875 -1.5625l1.1875 -0.21875q0.140625 0.953125 0.484375 1.390625q0.484375 0.625 1.171875 0.703125l0 -3.734375q-0.71875 -0.140625 -1.46875 -0.5625q-0.5625 -0.3125 -0.875 -0.859375q-0.296875 -0.5625 -0.296875 -1.265625q0 -1.25 0.890625 -2.015625q0.59375 -0.53125 1.75 -0.640625l0 -0.5625l0.703125 0l0 0.5625q1.015625 0.09375 1.609375 0.59375q0.765625 0.640625 0.921875 1.75l-1.203125 0.1875q-0.109375 -0.6875 -0.4375 -1.046875q-0.328125 -0.375 -0.890625 -0.5l0 3.375q0.875 0.234375 1.171875 0.359375q0.546875 0.234375 0.890625 0.578125q0.34375 0.34375 0.515625 0.828125q0.1875 0.46875 0.1875 1.015625q0 1.21875 -0.78125 2.03125q-0.765625 0.8125 -1.984375 0.875l0 1.1875l-0.703125 0zm0 -10.265625q-0.671875 0.109375 -1.078125 0.5625q-0.390625 0.4375 -0.390625 1.046875q0 0.59375 0.328125 1.0q0.34375 0.390625 1.140625 0.640625l0 -3.25zm0.703125 8.109375q0.671875 -0.09375 1.109375 -0.59375q0.453125 -0.515625 0.453125 -1.265625q0 -0.640625 -0.3125 -1.015625q-0.3125 -0.390625 -1.25 -0.703125l0 3.578125zm10.021851 -6.421875l-1.15625 0.09375q-0.15625 -0.6875 -0.4375 -1.0q-0.484375 -0.5 -1.171875 -0.5q-0.5625 0 -0.984375 0.3125q-0.5625 0.390625 -0.890625 1.171875q-0.3125 0.765625 -0.3125 2.203125q0.421875 -0.640625 1.03125 -0.953125q0.609375 -0.3125 1.28125 -0.3125q1.171875 0 1.984375 0.859375q0.828125 0.859375 0.828125 2.234375q0 0.890625 -0.390625 1.671875q-0.375 0.765625 -1.0625 1.171875q-0.671875 0.40625 -1.53125 0.40625q-1.46875 0 -2.390625 -1.0625q-0.921875 -1.078125 -0.921875 -3.5625q0 -2.765625 1.015625 -4.015625q0.90625 -1.09375 2.40625 -1.09375q1.125 0 1.84375 0.640625q0.71875 0.625 0.859375 1.734375zm-4.78125 4.109375q0 0.609375 0.25 1.171875q0.265625 0.546875 0.71875 0.84375q0.46875 0.28125 0.984375 0.28125q0.734375 0 1.265625 -0.59375q0.546875 -0.609375 0.546875 -1.640625q0 -0.984375 -0.53125 -1.546875q-0.53125 -0.578125 -1.328125 -0.578125q-0.796875 0 -1.359375 0.578125q-0.546875 0.5625 -0.546875 1.484375zm6.1312256 0.578125l1.171875 -0.15625q0.203125 1.0 0.6875 1.4375q0.484375 0.4375 1.171875 0.4375q0.828125 0 1.390625 -0.578125q0.578125 -0.578125 0.578125 -1.421875q0 -0.796875 -0.53125 -1.3125q-0.515625 -0.53125 -1.328125 -0.53125q-0.34375 0 -0.828125 0.125l0.125 -1.03125q0.125 0.015625 0.1875 0.015625q0.75 0 1.34375 -0.390625q0.609375 -0.390625 0.609375 -1.203125q0 -0.640625 -0.4375 -1.0625q-0.4375 -0.421875 -1.125 -0.421875q-0.6875 0 -1.140625 0.4375q-0.453125 0.421875 -0.59375 1.28125l-1.171875 -0.21875q0.21875 -1.171875 0.984375 -1.8125q0.765625 -0.65625 1.890625 -0.65625q0.78125 0 1.4375 0.34375q0.65625 0.328125 1.0 0.90625q0.359375 0.578125 0.359375 1.234375q0 0.609375 -0.34375 1.125q-0.328125 0.5 -0.96875 0.796875q0.84375 0.203125 1.3125 0.828125q0.46875 0.609375 0.46875 1.53125q0 1.25 -0.921875 2.125q-0.90625 0.859375 -2.296875 0.859375q-1.25 0 -2.09375 -0.75q-0.828125 -0.75 -0.9375 -1.9375zm8.037476 2.515625l0 -1.328125l1.328125 0l0 1.328125q0 0.734375 -0.265625 1.1875q-0.25 0.453125 -0.8125 0.703125l-0.328125 -0.5q0.375 -0.171875 0.546875 -0.484375q0.171875 -0.3125 0.1875 -0.90625l-0.65625 0zm3.0623627 -4.703125q0 -1.6875 0.34375 -2.71875q0.359375 -1.03125 1.046875 -1.59375q0.6875 -0.5625 1.71875 -0.5625q0.78125 0 1.359375 0.3125q0.578125 0.296875 0.953125 0.890625q0.375 0.578125 0.59375 1.421875q0.21875 0.828125 0.21875 2.25q0 1.671875 -0.359375 2.703125q-0.34375 1.03125 -1.03125 1.59375q-0.671875 0.5625 -1.734375 0.5625q-1.375 0 -2.15625 -0.984375q-0.953125 -1.1875 -0.953125 -3.875zm1.203125 0q0 2.34375 0.546875 3.125q0.5625 0.78125 1.359375 0.78125q0.8125 0 1.359375 -0.78125q0.5625 -0.78125 0.5625 -3.125q0 -2.359375 -0.5625 -3.125q-0.546875 -0.78125 -1.359375 -0.78125q-0.8125 0 -1.296875 0.6875q-0.609375 0.875 -0.609375 3.21875zm6.2093506 0q0 -1.6875 0.34375 -2.71875q0.359375 -1.03125 1.046875 -1.59375q0.6875 -0.5625 1.71875 -0.5625q0.78125 0 1.359375 0.3125q0.578125 0.296875 0.953125 0.890625q0.375 0.578125 0.59375 1.421875q0.21875 0.828125 0.21875 2.25q0 1.671875 -0.359375 2.703125q-0.34375 1.03125 -1.03125 1.59375q-0.671875 0.5625 -1.734375 0.5625q-1.375 0 -2.15625 -0.984375q-0.953125 -1.1875 -0.953125 -3.875zm1.203125 0q0 2.34375 0.546875 3.125q0.5625 0.78125 1.359375 0.78125q0.8125 0 1.359375 -0.78125q0.5625 -0.78125 0.5625 -3.125q0 -2.359375 -0.5625 -3.125q-0.546875 -0.78125 -1.359375 -0.78125q-0.8125 0 -1.296875 0.6875q-0.609375 0.875 -0.609375 3.21875zm6.2093506 0q0 -1.6875 0.34375 -2.71875q0.359375 -1.03125 1.046875 -1.59375q0.6875 -0.5625 1.71875 -0.5625q0.78125 0 1.359375 0.3125q0.578125 0.296875 0.953125 0.890625q0.375 0.578125 0.59375 1.421875q0.21875 0.828125 0.21875 2.25q0 1.671875 -0.359375 2.703125q-0.34375 1.03125 -1.03125 1.59375q-0.671875 0.5625 -1.734375 0.5625q-1.375 0 -2.15625 -0.984375q-0.953125 -1.1875 -0.953125 -3.875zm1.203125 0q0 2.34375 0.546875 3.125q0.5625 0.78125 1.359375 0.78125q0.8125 0 1.359375 -0.78125q0.5625 -0.78125 0.5625 -3.125q0 -2.359375 -0.5625 -3.125q-0.546875 -0.78125 -1.359375 -0.78125q-0.8125 0 -1.296875 0.6875q-0.609375 0.875 -0.609375 3.21875zm9.787338 1.84375l0 -1.1875l3.59375 0l0 1.1875l-3.59375 0zm11.031982 4.234375l0 -1.171875q-0.875 -0.109375 -1.421875 -0.390625q-0.546875 -0.28125 -0.953125 -0.90625q-0.390625 -0.640625 -0.46875 -1.5625l1.1875 -0.21875q0.140625 0.953125 0.484375 1.390625q0.484375 0.625 1.171875 0.703125l0 -3.734375q-0.71875 -0.140625 -1.46875 -0.5625q-0.5625 -0.3125 -0.875 -0.859375q-0.296875 -0.5625 -0.296875 -1.265625q0 -1.25 0.890625 -2.015625q0.59375 -0.53125 1.75 -0.640625l0 -0.5625l0.703125 0l0 0.5625q1.015625 0.09375 1.609375 0.59375q0.765625 0.640625 0.921875 1.75l-1.203125 0.1875q-0.109375 -0.6875 -0.4375 -1.046875q-0.328125 -0.375 -0.890625 -0.5l0 3.375q0.875 0.234375 1.171875 0.359375q0.546875 0.234375 0.890625 0.578125q0.34375 0.34375 0.515625 0.828125q0.1875 0.46875 0.1875 1.015625q0 1.21875 -0.78125 2.03125q-0.765625 0.8125 -1.984375 0.875l0 1.1875l-0.703125 0zm0 -10.265625q-0.671875 0.109375 -1.078125 0.5625q-0.390625 0.4375 -0.390625 1.046875q0 0.59375 0.328125 1.0q0.34375 0.390625 1.140625 0.640625l0 -3.25zm0.703125 8.109375q0.671875 -0.09375 1.109375 -0.59375q0.453125 -0.515625 0.453125 -1.265625q0 -0.640625 -0.3125 -1.015625q-0.3125 -0.390625 -1.25 -0.703125l0 3.578125zm8.365601 0.78125l-1.171875 0l0 -7.46875q-0.421875 0.40625 -1.109375 0.8125q-0.6875 0.40625 -1.234375 0.609375l0 -1.140625q0.984375 -0.453125 1.71875 -1.109375q0.734375 -0.671875 1.03125 -1.28125l0.765625 0l0 9.578125zm7.4124756 0l-1.171875 0l0 -7.46875q-0.421875 0.40625 -1.109375 0.8125q-0.6875 0.40625 -1.234375 0.609375l0 -1.140625q0.984375 -0.453125 1.71875 -1.109375q0.734375 -0.671875 1.03125 -1.28125l0.765625 0l0 9.578125zm2.9906006 -4.703125q0 -1.6875 0.34375 -2.71875q0.359375 -1.03125 1.046875 -1.59375q0.6875 -0.5625 1.71875 -0.5625q0.78125 0 1.359375 0.3125q0.578125 0.296875 0.953125 0.890625q0.375 0.578125 0.59375 1.421875q0.21875 0.828125 0.21875 2.25q0 1.671875 -0.359375 2.703125q-0.34375 1.03125 -1.03125 1.59375q-0.671875 0.5625 -1.734375 0.5625q-1.375 0 -2.15625 -0.984375q-0.953125 -1.1875 -0.953125 -3.875zm1.203125 0q0 2.34375 0.546875 3.125q0.5625 0.78125 1.359375 0.78125q0.8125 0 1.359375 -0.78125q0.5625 -0.78125 0.5625 -3.125q0 -2.359375 -0.5625 -3.125q-0.546875 -0.78125 -1.359375 -0.78125q-0.8125 0 -1.296875 0.6875q-0.609375 0.875 -0.609375 3.21875zm6.8499756 4.703125l0 -1.328125l1.328125 0l0 1.328125q0 0.734375 -0.265625 1.1875q-0.25 0.453125 -0.8125 0.703125l-0.328125 -0.5q0.375 -0.171875 0.546875 -0.484375q0.171875 -0.3125 0.1875 -0.90625l-0.65625 0zm3.0623627 -4.703125q0 -1.6875 0.34375 -2.71875q0.359375 -1.03125 1.046875 -1.59375q0.6875 -0.5625 1.71875 -0.5625q0.78125 0 1.359375 0.3125q0.578125 0.296875 0.953125 0.890625q0.375 0.578125 0.59375 1.421875q0.21875 0.828125 0.21875 2.25q0 1.671875 -0.359375 2.703125q-0.34375 1.03125 -1.03125 1.59375q-0.671875 0.5625 -1.734375 0.5625q-1.375 0 -2.15625 -0.984375q-0.953125 -1.1875 -0.953125 -3.875zm1.203125 0q0 2.34375 0.546875 3.125q0.5625 0.78125 1.359375 0.78125q0.8125 0 1.359375 -0.78125q0.5625 -0.78125 0.5625 -3.125q0 -2.359375 -0.5625 -3.125q-0.546875 -0.78125 -1.359375 -0.78125q-0.8125 0 -1.296875 0.6875q-0.609375 0.875 -0.609375 3.21875zm6.2093506 0q0 -1.6875 0.34375 -2.71875q0.359375 -1.03125 1.046875 -1.59375q0.6875 -0.5625 1.71875 -0.5625q0.78125 0 1.359375 0.3125q0.578125 0.296875 0.953125 0.890625q0.375 0.578125 0.59375 1.421875q0.21875 0.828125 0.21875 2.25q0 1.671875 -0.359375 2.703125q-0.34375 1.03125 -1.03125 1.59375q-0.671875 0.5625 -1.734375 0.5625q-1.375 0 -2.15625 -0.984375q-0.953125 -1.1875 -0.953125 -3.875zm1.203125 0q0 2.34375 0.546875 3.125q0.5625 0.78125 1.359375 0.78125q0.8125 0 1.359375 -0.78125q0.5625 -0.78125 0.5625 -3.125q0 -2.359375 -0.5625 -3.125q-0.546875 -0.78125 -1.359375 -0.78125q-0.8125 0 -1.296875 0.6875q-0.609375 0.875 -0.609375 3.21875zm6.2093506 0q0 -1.6875 0.34375 -2.71875q0.359375 -1.03125 1.046875 -1.59375q0.6875 -0.5625 1.71875 -0.5625q0.78125 0 1.359375 0.3125q0.578125 0.296875 0.953125 0.890625q0.375 0.578125 0.59375 1.421875q0.21875 0.828125 0.21875 2.25q0 1.671875 -0.359375 2.703125q-0.34375 1.03125 -1.03125 1.59375q-0.671875 0.5625 -1.734375 0.5625q-1.375 0 -2.15625 -0.984375q-0.953125 -1.1875 -0.953125 -3.875zm1.203125 0q0 2.34375 0.546875 3.125q0.5625 0.78125 1.359375 0.78125q0.8125 0 1.359375 -0.78125q0.5625 -0.78125 0.5625 -3.125q0 -2.359375 -0.5625 -3.125q-0.546875 -0.78125 -1.359375 -0.78125q-0.8125 0 -1.296875 0.6875q-0.609375 0.875 -0.609375 3.21875z" fill-rule="nonzero"/><path fill="#f0f0e7" d="m37.92651 50.0l11.559055 0l0 20.125984l-11.559055 0z" fill-rule="evenodd"/><path stroke="#000000" stroke-width="1.0" stroke-linejoin="round" stroke-linecap="butt" d="m37.92651 50.0l11.559055 0l0 20.125984l-11.559055 0z" fill-rule="evenodd"/><path fill="#000000" fill-opacity="0.0" d="m49.485565 50.0l130.11023 0l0 20.125984l-130.11023 0z" fill-rule="evenodd"/><path fill="#000000" d="m61.798065 66.23799l0 -1.171875q-0.875 -0.109375 -1.421875 -0.390625q-0.546875 -0.28125 -0.953125 -0.90625q-0.390625 -0.640625 -0.46875 -1.5625l1.1875 -0.21875q0.140625 0.953125 0.484375 1.390625q0.484375 0.625 1.171875 0.703125l0 -3.734375q-0.71875 -0.140625 -1.46875 -0.5625q-0.5625 -0.3125 -0.875 -0.859375q-0.296875 -0.5625 -0.296875 -1.265625q0 -1.25 0.890625 -2.015625q0.59375 -0.53125 1.75 -0.640625l0 -0.5625l0.703125 0l0 0.5625q1.015625 0.09375 1.609375 0.59375q0.765625 0.640625 0.921875 1.75l-1.203125 0.1875q-0.109375 -0.6875 -0.4375 -1.046875q-0.328125 -0.375 -0.890625 -0.5l0 3.375q0.875 0.234375 1.171875 0.359375q0.546875 0.234375 0.890625 0.578125q0.34375 0.34375 0.515625 0.828125q0.1875 0.46875 0.1875 1.015625q0 1.21875 -0.78125 2.03125q-0.765625 0.8125 -1.984375 0.875l0 1.1875l-0.703125 0zm0 -10.265625q-0.671875 0.109375 -1.078125 0.5625q-0.390625 0.4375 -0.390625 1.046875q0 0.59375 0.328125 1.0q0.34375 0.390625 1.140625 0.640625l0 -3.25zm0.703125 8.109375q0.671875 -0.09375 1.109375 -0.59375q0.453125 -0.515625 0.453125 -1.265625q0 -0.640625 -0.3125 -1.015625q-0.3125 -0.390625 -1.25 -0.703125l0 3.578125zm3.9437256 -3.921875q0 -1.6875 0.34375 -2.71875q0.359375 -1.03125 1.046875 -1.59375q0.6875 -0.5625 1.71875 -0.5625q0.78125 0 1.359375 0.3125q0.578125 0.296875 0.953125 0.890625q0.375 0.578125 0.59375 1.421875q0.21875 0.828125 0.21875 2.25q0 1.671875 -0.359375 2.703125q-0.34375 1.03125 -1.03125 1.59375q-0.671875 0.5625 -1.734375 0.5625q-1.375 0 -2.15625 -0.984375q-0.953125 -1.1875 -0.953125 -3.875zm1.203125 0q0 2.34375 0.546875 3.125q0.5625 0.78125 1.359375 0.78125q0.8125 0 1.359375 -0.78125q0.5625 -0.78125 0.5625 -3.125q0 -2.359375 -0.5625 -3.125q-0.546875 -0.78125 -1.359375 -0.78125q-0.8125 0 -1.296875 0.6875q-0.609375 0.875 -0.609375 3.21875zm9.787338 1.84375l0 -1.1875l3.59375 0l0 1.1875l-3.59375 0zm11.031982 4.234375l0 -1.171875q-0.875 -0.109375 -1.421875 -0.390625q-0.546875 -0.28125 -0.953125 -0.90625q-0.390625 -0.640625 -0.46875 -1.5625l1.1875 -0.21875q0.140625 0.953125 0.484375 1.390625q0.484375 0.625 1.171875 0.703125l0 -3.734375q-0.71875 -0.140625 -1.46875 -0.5625q-0.5625 -0.3125 -0.875 -0.859375q-0.296875 -0.5625 -0.296875 -1.265625q0 -1.25 0.890625 -2.015625q0.59375 -0.53125 1.75 -0.640625l0 -0.5625l0.703125 0l0 0.5625q1.015625 0.09375 1.609375 0.59375q0.765625 0.640625 0.921875 1.75l-1.203125 0.1875q-0.109375 -0.6875 -0.4375 -1.046875q-0.328125 -0.375 -0.890625 -0.5l0 3.375q0.875 0.234375 1.171875 0.359375q0.546875 0.234375 0.890625 0.578125q0.34375 0.34375 0.515625 0.828125q0.1875 0.46875 0.1875 1.015625q0 1.21875 -0.78125 2.03125q-0.765625 0.8125 -1.984375 0.875l0 1.1875l-0.703125 0zm0 -10.265625q-0.671875 0.109375 -1.078125 0.5625q-0.390625 0.4375 -0.390625 1.046875q0 0.59375 0.328125 1.0q0.34375 0.390625 1.140625 0.640625l0 -3.25zm0.703125 8.109375q0.671875 -0.09375 1.109375 -0.59375q0.453125 -0.515625 0.453125 -1.265625q0 -0.640625 -0.3125 -1.015625q-0.3125 -0.390625 -1.25 -0.703125l0 3.578125zm10.021851 -6.421875l-1.15625 0.09375q-0.15625 -0.6875 -0.4375 -1.0q-0.484375 -0.5 -1.171875 -0.5q-0.5625 0 -0.984375 0.3125q-0.5625 0.390625 -0.890625 1.171875q-0.3125 0.765625 -0.3125 2.203125q0.421875 -0.640625 1.03125 -0.953125q0.609375 -0.3125 1.28125 -0.3125q1.171875 0 1.984375 0.859375q0.828125 0.859375 0.828125 2.234375q0 0.890625 -0.390625 1.671875q-0.375 0.765625 -1.0625 1.171875q-0.671875 0.40625 -1.53125 0.40625q-1.46875 0 -2.390625 -1.0625q-0.921875 -1.078125 -0.921875 -3.5625q0 -2.765625 1.015625 -4.015625q0.90625 -1.09375 2.40625 -1.09375q1.125 0 1.84375 0.640625q0.71875 0.625 0.859375 1.734375zm-4.78125 4.109375q0 0.609375 0.25 1.171875q0.265625 0.546875 0.71875 0.84375q0.46875 0.28125 0.984375 0.28125q0.734375 0 1.265625 -0.59375q0.546875 -0.609375 0.546875 -1.640625q0 -0.984375 -0.53125 -1.546875q-0.53125 -0.578125 -1.328125 -0.578125q-0.796875 0 -1.359375 0.578125q-0.546875 0.5625 -0.546875 1.484375zm6.1312256 0.578125l1.171875 -0.15625q0.203125 1.0 0.6875 1.4375q0.484375 0.4375 1.171875 0.4375q0.828125 0 1.390625 -0.578125q0.578125 -0.578125 0.578125 -1.421875q0 -0.796875 -0.53125 -1.3125q-0.515625 -0.53125 -1.328125 -0.53125q-0.34375 0 -0.828125 0.125l0.125 -1.03125q0.125 0.015625 0.1875 0.015625q0.75 0 1.34375 -0.390625q0.609375 -0.390625 0.609375 -1.203125q0 -0.640625 -0.4375 -1.0625q-0.4375 -0.421875 -1.125 -0.421875q-0.6875 0 -1.140625 0.4375q-0.453125 0.421875 -0.59375 1.28125l-1.171875 -0.21875q0.21875 -1.171875 0.984375 -1.8125q0.765625 -0.65625 1.890625 -0.65625q0.78125 0 1.4375 0.34375q0.65625 0.328125 1.0 0.90625q0.359375 0.578125 0.359375 1.234375q0 0.609375 -0.34375 1.125q-0.328125 0.5 -0.96875 0.796875q0.84375 0.203125 1.3125 0.828125q0.46875 0.609375 0.46875 1.53125q0 1.25 -0.921875 2.125q-0.90625 0.859375 -2.296875 0.859375q-1.25 0 -2.09375 -0.75q-0.828125 -0.75 -0.9375 -1.9375zm8.037476 2.515625l0 -1.328125l1.328125 0l0 1.328125q0 0.734375 -0.265625 1.1875q-0.25 0.453125 -0.8125 0.703125l-0.328125 -0.5q0.375 -0.171875 0.546875 -0.484375q0.171875 -0.3125 0.1875 -0.90625l-0.65625 0zm3.0623627 -4.703125q0 -1.6875 0.34375 -2.71875q0.359375 -1.03125 1.046875 -1.59375q0.6875 -0.5625 1.71875 -0.5625q0.78125 0 1.359375 0.3125q0.578125 0.296875 0.953125 0.890625q0.375 0.578125 0.59375 1.421875q0.21875 0.828125 0.21875 2.25q0 1.671875 -0.359375 2.703125q-0.34375 1.03125 -1.03125 1.59375q-0.671875 0.5625 -1.734375 0.5625q-1.375 0 -2.15625 -0.984375q-0.953125 -1.1875 -0.953125 -3.875zm1.203125 0q0 2.34375 0.546875 3.125q0.5625 0.78125 1.359375 0.78125q0.8125 0 1.359375 -0.78125q0.5625 -0.78125 0.5625 -3.125q0 -2.359375 -0.5625 -3.125q-0.546875 -0.78125 -1.359375 -0.78125q-0.8125 0 -1.296875 0.6875q-0.609375 0.875 -0.609375 3.21875zm6.2093506 0q0 -1.6875 0.34375 -2.71875q0.359375 -1.03125 1.046875 -1.59375q0.6875 -0.5625 1.71875 -0.5625q0.78125 0 1.359375 0.3125q0.578125 0.296875 0.953125 0.890625q0.375 0.578125 0.59375 1.421875q0.21875 0.828125 0.21875 2.25q0 1.671875 -0.359375 2.703125q-0.34375 1.03125 -1.03125 1.59375q-0.671875 0.5625 -1.734375 0.5625q-1.375 0 -2.15625 -0.984375q-0.953125 -1.1875 -0.953125 -3.875zm1.203125 0q0 2.34375 0.546875 3.125q0.5625 0.78125 1.359375 0.78125q0.8125 0 1.359375 -0.78125q0.5625 -0.78125 0.5625 -3.125q0 -2.359375 -0.5625 -3.125q-0.546875 -0.78125 -1.359375 -0.78125q-0.8125 0 -1.296875 0.6875q-0.609375 0.875 -0.609375 3.21875zm6.2093506 0q0 -1.6875 0.34375 -2.71875q0.359375 -1.03125 1.046875 -1.59375q0.6875 -0.5625 1.71875 -0.5625q0.78125 0 1.359375 0.3125q0.578125 0.296875 0.953125 0.890625q0.375 0.578125 0.59375 1.421875q0.21875 0.828125 0.21875 2.25q0 1.671875 -0.359375 2.703125q-0.34375 1.03125 -1.03125 1.59375q-0.671875 0.5625 -1.734375 0.5625q-1.375 0 -2.15625 -0.984375q-0.953125 -1.1875 -0.953125 -3.875zm1.203125 0q0 2.34375 0.546875 3.125q0.5625 0.78125 1.359375 0.78125q0.8125 0 1.359375 -0.78125q0.5625 -0.78125 0.5625 -3.125q0 -2.359375 -0.5625 -3.125q-0.546875 -0.78125 -1.359375 -0.78125q-0.8125 0 -1.296875 0.6875q-0.609375 0.875 -0.609375 3.21875z" fill-rule="nonzero"/><path fill="#a9a9a9" d="m37.92651 70.125984l11.559055 0l0 20.125984l-11.559055 0z" fill-rule="evenodd"/><path stroke="#000000" stroke-width="1.0" stroke-linejoin="round" stroke-linecap="butt" d="m37.92651 70.125984l11.559055 0l0 20.125984l-11.559055 0z" fill-rule="evenodd"/><path fill="#000000" fill-opacity="0.0" d="m49.485565 70.125984l130.11023 0l0 20.125984l-130.11023 0z" fill-rule="evenodd"/><path fill="#000000" d="m59.50119 84.988976l0 -9.546875l1.296875 0l5.015625 7.5l0 -7.5l1.203125 0l0 9.546875l-1.296875 0l-5.015625 -7.5l0 7.5l-1.203125 0zm9.047028 -3.453125q0 -1.921875 1.078125 -2.84375q0.890625 -0.765625 2.171875 -0.765625q1.421875 0 2.328125 0.9375q0.90625 0.921875 0.90625 2.578125q0 1.328125 -0.40625 2.09375q-0.390625 0.765625 -1.15625 1.1875q-0.765625 0.421875 -1.671875 0.421875q-1.453125 0 -2.359375 -0.921875q-0.890625 -0.9375 -0.890625 -2.6875zm1.203125 0q0 1.328125 0.578125 1.984375q0.59375 0.65625 1.46875 0.65625q0.875 0 1.453125 -0.65625q0.578125 -0.671875 0.578125 -2.03125q0 -1.28125 -0.59375 -1.9375q-0.578125 -0.65625 -1.4375 -0.65625q-0.875 0 -1.46875 0.65625q-0.578125 0.65625 -0.578125 1.984375zm10.506088 3.453125l0 -9.546875l3.28125 0q1.109375 0 1.703125 0.140625q0.8125 0.1875 1.390625 0.6875q0.765625 0.640625 1.140625 1.640625q0.375 0.984375 0.375 2.25q0 1.09375 -0.265625 1.9375q-0.25 0.828125 -0.65625 1.390625q-0.390625 0.546875 -0.859375 0.859375q-0.46875 0.3125 -1.140625 0.484375q-0.65625 0.15625 -1.53125 0.15625l-3.4375 0zm1.265625 -1.125l2.03125 0q0.9375 0 1.46875 -0.171875q0.546875 -0.1875 0.875 -0.5q0.4375 -0.453125 0.6875 -1.203125q0.25 -0.765625 0.25 -1.84375q0 -1.5 -0.5 -2.296875q-0.484375 -0.8125 -1.1875 -1.078125q-0.5 -0.203125 -1.625 -0.203125l-2.0 0l0 7.296875zm12.718903 0.265625q-0.65625 0.5625 -1.265625 0.796875q-0.59375 0.21875 -1.28125 0.21875q-1.140625 0 -1.75 -0.546875q-0.609375 -0.5625 -0.609375 -1.4375q0 -0.5 0.21875 -0.921875q0.234375 -0.421875 0.609375 -0.671875q0.375 -0.25 0.84375 -0.390625q0.34375 -0.078125 1.046875 -0.171875q1.421875 -0.171875 2.09375 -0.40625q0 -0.234375 0 -0.296875q0 -0.71875 -0.328125 -1.015625q-0.453125 -0.390625 -1.34375 -0.390625q-0.8125 0 -1.21875 0.296875q-0.390625 0.28125 -0.578125 1.015625l-1.140625 -0.15625q0.15625 -0.734375 0.515625 -1.1875q0.359375 -0.453125 1.03125 -0.6875q0.671875 -0.25 1.5625 -0.25q0.890625 0 1.4375 0.203125q0.5625 0.203125 0.8125 0.53125q0.265625 0.3125 0.375 0.796875q0.046875 0.296875 0.046875 1.078125l0 1.5625q0 1.625 0.078125 2.0625q0.078125 0.4375 0.296875 0.828125l-1.21875 0q-0.1875 -0.359375 -0.234375 -0.859375zm-0.09375 -2.609375q-0.640625 0.265625 -1.921875 0.4375q-0.71875 0.109375 -1.015625 0.25q-0.296875 0.125 -0.46875 0.375q-0.15625 0.25 -0.15625 0.546875q0 0.46875 0.34375 0.78125q0.359375 0.3125 1.046875 0.3125q0.671875 0 1.203125 -0.296875q0.53125 -0.296875 0.78125 -0.8125q0.1875 -0.390625 0.1875 -1.171875l0 -0.421875zm5.5531006 2.421875l0.171875 1.03125q-0.5 0.109375 -0.890625 0.109375q-0.640625 0 -1.0 -0.203125q-0.34375 -0.203125 -0.484375 -0.53125q-0.140625 -0.328125 -0.140625 -1.390625l0 -3.96875l-0.859375 0l0 -0.90625l0.859375 0l0 -1.71875l1.171875 -0.703125l0 2.421875l1.171875 0l0 0.90625l-1.171875 0l0 4.046875q0 0.5 0.046875 0.640625q0.0625 0.140625 0.203125 0.234375q0.140625 0.078125 0.40625 0.078125q0.203125 0 0.515625 -0.046875zm5.6561127 0.1875q-0.65625 0.5625 -1.265625 0.796875q-0.59375 0.21875 -1.28125 0.21875q-1.140625 0 -1.75 -0.546875q-0.609375 -0.5625 -0.609375 -1.4375q0 -0.5 0.21875 -0.921875q0.234375 -0.421875 0.609375 -0.671875q0.375 -0.25 0.84375 -0.390625q0.34375 -0.078125 1.046875 -0.171875q1.421875 -0.171875 2.09375 -0.40625q0 -0.234375 0 -0.296875q0 -0.71875 -0.328125 -1.015625q-0.453125 -0.390625 -1.34375 -0.390625q-0.8125 0 -1.21875 0.296875q-0.390625 0.28125 -0.578125 1.015625l-1.140625 -0.15625q0.15625 -0.734375 0.515625 -1.1875q0.359375 -0.453125 1.03125 -0.6875q0.671875 -0.25 1.5625 -0.25q0.890625 0 1.4375 0.203125q0.5625 0.203125 0.8125 0.53125q0.265625 0.3125 0.375 0.796875q0.046875 0.296875 0.046875 1.078125l0 1.5625q0 1.625 0.078125 2.0625q0.078125 0.4375 0.296875 0.828125l-1.21875 0q-0.1875 -0.359375 -0.234375 -0.859375zm-0.09375 -2.609375q-0.640625 0.265625 -1.921875 0.4375q-0.71875 0.109375 -1.015625 0.25q-0.296875 0.125 -0.46875 0.375q-0.15625 0.25 -0.15625 0.546875q0 0.46875 0.34375 0.78125q0.359375 0.3125 1.046875 0.3125q0.671875 0 1.203125 -0.296875q0.53125 -0.296875 0.78125 -0.8125q0.1875 -0.390625 0.1875 -1.171875l0 -0.421875z" fill-rule="nonzero"/></g></svg>